<?xml version="1.0" encoding="utf-8"?>
<!-- Generator: Adobe Illustrator 17.1.0, SVG Export Plug-In . SVG Version: 6.00 Build 0)  -->
<!DOCTYPE svg PUBLIC "-//W3C//DTD SVG 1.1//EN" "http://www.w3.org/Graphics/SVG/1.1/DTD/svg11.dtd">
<svg version="1.1" id="Слой_1" xmlns="http://www.w3.org/2000/svg" xmlns:xlink="http://www.w3.org/1999/xlink" x="0px" y="0px"
	 viewBox="-4.1 704 511.8 147.6" enable-background="new -4.1 704 511.8 147.6" xml:space="preserve">
<rect x="-4.1" y="704" fill="none" width="501.8" height="147.6"/>
<title>logo</title>
<g enable-background="new    ">
	<path fill="#FBBC04" d="M204.9,764.1L204.9,764.1c5.6-3.5,12.9-3.9,18.9-0.4c8.6,5.1,11.6,16.2,6.5,24.8c-1.7,2.7-3.8,4.8-6.4,6.4
		c0,0-0.6,0.4-0.7,0.4l-62.5,35.4c-6.3,3.8-12.6,4.6-19.4,0.7c-7-4-12-16.2-6.4-24.7c3.5-5.2,5.4-5.7,8.7-7.8L204.9,764.1
		L204.9,764.1z"/>
	<path fill="#E94235" d="M79.1,727.2L79.1,727.2c5.6-3.5,12.9-3.9,18.9-0.4c8.6,5.1,11.6,16.2,6.5,24.8c-1.7,2.7-3.8,4.8-6.4,6.4
		c0,0-0.6,0.4-0.7,0.4l-62.5,35.4c-6.3,3.8-12.6,4.6-19.4,0.7c-7-4-12-16.2-6.4-24.7c3.5-5.2,5.4-5.7,8.7-7.8
		C18,762.1,79.1,727.2,79.1,727.2z"/>
	<path fill="#34A853" d="M223.1,763.4L223.1,763.4c5.9,3,9.8,9.1,9.8,16.2c0,10-8.1,18.1-18.1,18.1c-3.2,0-6.1-0.8-8.7-2.2
		c0,0-0.6-0.4-0.7-0.4l-62-36c-6.4-3.4-10.4-8.6-10.4-16.4c0-8,7.9-18.5,18.1-17.8c6.3,0.4,7.7,1.8,11.1,3.5
		C162.3,728.3,223.1,763.4,223.1,763.4z"/>
	<path fill="#4688F1" d="M96.4,799.9L96.4,799.9c5.9,3,9.8,9.1,9.8,16.2c0,10-8.1,18.1-18.1,18.1c-3.2,0-6.1-0.8-8.7-2.2
		c0,0-0.6-0.4-0.7-0.4l-62-36c-6.4-3.4-10.4-8.6-10.4-16.4c0-8,7.9-18.5,18.1-17.8c6.3,0.4,7.7,1.8,11.1,3.5L96.4,799.9L96.4,799.9z
		"/>
</g>
<g>
	<path d="M281.2,813.9c-5.8-3.3-10.4-7.9-13.8-13.8c-3.4-5.9-5.1-12.3-5.1-19.4c0-7.1,1.7-13.6,5.1-19.4c3.4-5.9,8-10.5,13.8-13.8
		c5.8-3.3,12.1-5,19-5c5.4,0,10.4,1,15.2,2.9c4.7,1.9,8.6,4.6,11.7,8.1l-6.2,6.2c-2.3-2.9-5.3-5.1-8.9-6.6
		c-3.6-1.5-7.5-2.3-11.6-2.3c-5.2,0-10,1.2-14.5,3.7c-4.5,2.5-8,6-10.7,10.5c-2.7,4.5-4,9.8-4,15.7s1.3,11.2,4,15.7
		c2.7,4.5,6.3,8,10.8,10.5c4.5,2.5,9.3,3.7,14.4,3.7c4.9,0,9-0.8,12.3-2.3c3.3-1.5,6.1-3.6,8.5-6.1c1.8-1.9,3.2-4.2,4.3-6.9
		c1.1-2.7,1.8-5.7,2-8.9h-27.1v-8.1h35.2c0.3,1.9,0.5,3.7,0.5,5.3c0,4.5-0.7,8.9-2.1,13.1c-1.4,4.3-3.7,8-6.8,11.2
		c-6.7,7.3-15.7,10.9-26.9,10.9C293.3,818.9,287,817.2,281.2,813.9z"/>
	<path d="M348.9,744.1H371c7.5,0,14,1.5,19.6,4.6c5.6,3.1,9.9,7.4,12.9,12.9c3,5.5,4.5,11.9,4.5,19s-1.5,13.5-4.5,19
		c-3,5.5-7.3,9.8-12.9,12.9c-5.6,3.1-12.1,4.6-19.6,4.6h-22.1V744.1z M371,809c8.7,0,15.5-2.5,20.6-7.5c5.1-5,7.6-11.9,7.6-20.8
		c0-8.9-2.5-15.9-7.6-20.8c-5.1-5-11.9-7.5-20.6-7.5h-13.5V809H371z"/>
	<path d="M436.1,813.9c-5.8-3.3-10.4-7.9-13.8-13.8c-3.4-5.9-5.1-12.3-5.1-19.4c0-7.1,1.7-13.6,5.1-19.4c3.4-5.9,8-10.5,13.8-13.8
		c5.8-3.3,12.1-5,19-5c5.4,0,10.4,1,15.2,2.9c4.7,1.9,8.6,4.6,11.7,8.1l-6.2,6.2c-2.3-2.9-5.3-5.1-8.9-6.6
		c-3.6-1.5-7.5-2.3-11.6-2.3c-5.2,0-10,1.2-14.5,3.7c-4.5,2.5-8,6-10.7,10.5c-2.7,4.5-4,9.8-4,15.7s1.3,11.2,4,15.7
		c2.7,4.5,6.3,8,10.8,10.5c4.5,2.5,9.3,3.7,14.4,3.7c4.9,0,9-0.8,12.3-2.3c3.3-1.5,6.1-3.6,8.5-6.1c1.8-1.9,3.2-4.2,4.3-6.9
		c1.1-2.7,1.8-5.7,2-8.9h-27.1v-8.1h35.2c0.3,1.9,0.5,3.7,0.5,5.3c0,4.5-0.7,8.9-2.1,13.1c-1.4,4.3-3.7,8-6.8,11.2
		c-6.7,7.3-15.7,10.9-26.9,10.9C448.2,818.9,441.9,817.2,436.1,813.9z"/>
</g>
</svg>
